# xmcd
#
# Track frame offsets: 
#        150
#        5260
#        25558
#        43526
#        69466
#        89991
#        108167
#        128831
#        147958
#        168837
#        192175
#        222588
#        251094
#        267811
#        284022
#        315513
#
# Disc length: 4489 seconds
#
# Revision: 4
# Processed by: cddbd v1.5.2PL0 Copyright (c) Steve Scherf et al.
# Submitted via: ExactAudioCopy v1.1
#
DISCID=e5118710
DTITLE=Queen and Paul Rodgers - Return Of The Champions [TOCP-67753]
DYEAR=2005
DGENRE=Rock
TTITLE0=Reaching Out
TTITLE1=Tie Your Mother Down
TTITLE2=I Want To Break Free
TTITLE3=Fat Bottomed Girls
TTITLE4=Wishing Well
TTITLE5=Another One Bites The Dust
TTITLE6=Crazy Little Thing Called Love
TTITLE7=Say It's Not True
TTITLE8='39
TTITLE9=Love Of My Life
TTITLE10=Hammer To Fall
TTITLE11=Feel Like Makin' Love
TTITLE12=Let There Be Drums
TTITLE13=I'm In Love With My Car
TTITLE14=Guitar Solo
TTITLE15=Last Horizon
EXTD=YEAR: 2005
EXTT0=
EXTT1=
EXTT2=
EXTT3=
EXTT4=
EXTT5=
EXTT6=
EXTT7=
EXTT8=
EXTT9=
EXTT10=
EXTT11=
EXTT12=
EXTT13=
EXTT14=
EXTT15=
PLAYORDER=
